<?xml version="1.0" standalone="no"?>
<!DOCTYPE svg PUBLIC "-//W3C//DTD SVG 20010904//EN"
 "http://www.w3.org/TR/2001/REC-SVG-20010904/DTD/svg10.dtd">
<svg version="1.0" xmlns="http://www.w3.org/2000/svg"
 width="512.000000pt" height="512.000000pt" viewBox="0 0 512.000000 512.000000"
 preserveAspectRatio="xMidYMid meet">
<metadata>
Created by potrace 1.14, written by Peter Selinger 2001-2017
</metadata>
<g transform="translate(0.000000,512.000000) scale(0.100000,-0.100000)"
fill="#000000" stroke="none">
<path d="M1963 5105 c-90 -25 -139 -54 -246 -147 -16 -14 -62 -35 -103 -48
-298 -91 -514 -293 -557 -520 -11 -55 -17 -66 -57 -98 -172 -142 -260 -337
-256 -575 l1 -89 -46 -37 c-82 -64 -164 -188 -203 -307 -17 -52 -18 -58 -37
-159 -10 -56 -14 -316 -5 -360 20 -101 18 -121 -19 -205 -58 -133 -95 -293
-99 -428 -2 -88 21 -239 43 -277 3 -5 6 -12 6 -15 0 -3 18 -37 40 -74 32 -56
40 -78 41 -124 3 -127 32 -240 94 -367 78 -158 181 -278 390 -450 203 -167
322 -299 471 -522 83 -124 95 -136 196 -193 156 -90 338 -127 478 -98 170 35
340 183 436 381 13 26 26 47 29 47 3 0 14 -18 24 -39 57 -131 189 -278 304
-339 191 -102 444 -70 675 85 46 31 72 60 134 153 42 63 92 135 112 160 20 24
43 53 51 64 49 64 212 223 320 311 241 196 357 349 429 561 31 92 39 134 45
244 3 53 10 76 40 124 44 73 73 160 84 252 21 186 -17 386 -115 592 -10 20
-13 44 -9 63 9 49 20 186 20 264 -1 300 -82 512 -252 656 l-42 36 -4 114 c-2
63 -7 128 -11 144 -34 162 -117 301 -237 400 -50 41 -54 47 -66 112 -42 220
-261 423 -555 513 -56 17 -86 34 -128 71 -176 157 -386 178 -583 59 -57 -35
-144 -113 -204 -183 l-32 -38 -27 33 c-85 105 -209 200 -311 238 -72 27 -191
34 -259 15z"/>
</g>
</svg>
